<svg viewBox="0 0 24 24" width="24" height="24">
    <g fill="currentColor" stroke="currentColor" stroke-width=".5" fill-rule="evenodd">
        <path
            d="M11.436 21.17l-.185-.165a35.36 35.36 0 0 1-3.615-3.801C5.222 14.244 4 11.658 4 9.524 4 5.305 7.267 2 11.436 2c4.168 0 7.437 3.305 7.437 7.524 0 4.903-6.953 11.214-7.237 11.48l-.2.167zm0-18.683c-3.869 0-6.9 3.091-6.9 7.037 0 4.401 5.771 9.927 6.897 10.972 1.12-1.054 6.902-6.694 6.902-10.95.001-3.968-3.03-7.059-6.9-7.059h.001z" />
        <path
            d="M11.445 12.5a2.945 2.945 0 0 1-2.721-1.855 3.04 3.04 0 0 1 .641-3.269 2.905 2.905 0 0 1 3.213-.645 3.003 3.003 0 0 1 1.813 2.776c-.006 1.653-1.322 2.991-2.946 2.993zm0-5.544c-1.378 0-2.496 1.139-2.498 2.542 0 1.404 1.115 2.544 2.495 2.546a2.52 2.52 0 0 0 2.502-2.535 2.527 2.527 0 0 0-2.499-2.545v-.008z" />
    </g>
</svg>